# xmcd CD database file
#
# Track frame offsets:
#	150
#	13373
#	22083
#	30938
#	42425
#	56785
#	64145
#	85028
#	99128
#	105222
#	131051
#	139262
#	153170
#	165440
#	178236
#
# Disc length: 2487 seconds
#
# Revision: 3
# Processed by: cddbd v1.5.2PL0 Copyright (c) Steve Scherf et al.
# Submitted via: CDex 1.70beta2
#
DISCID=bd09b50f
DTITLE=Blind Willie McTell - Library Of Congress Recordings 1940
DYEAR=1940
DGENRE=
TTITLE0=Just As Well Get Ready, You Got To Die - Climbing High Mountain, Trying Get Home
TTITLE1=Monologue On Accidents
TTITLE2=Boll Weevil
TTITLE3=Delia
TTITLE4=Dying Crapshooter's Blues
TTITLE5=Will Fox
TTITLE6=I Got To Cross The River Jordan
TTITLE7=Monologue On Old Songs - Old Time Religion, Amen
TTITLE8=Amazing Grace
TTITLE9=Monologue On History Of The Blues - Monologue On Life As Maker Of Records - Monologue On Himself
TTITLE10=King Edward Blues
TTITLE11=Murderer's Home Blues
TTITLE12=Kill-It-Kid Rag
TTITLE13=Chainey
TTITLE14=I Got To Cross De River O'jordan
EXTD=YEAR: 1940
EXTT0=
EXTT1=
EXTT2=
EXTT3=
EXTT4=
EXTT5=
EXTT6=
EXTT7=
EXTT8=
EXTT9=
EXTT10=
EXTT11=
EXTT12=
EXTT13=
EXTT14=
PLAYORDER=
